{
  "accessors": [
    {
      "bufferView": 2,
      "componentType": 5126,
      "count": 3794,
      "max": [
        10.981135368347168,
        20.992462158203125,
        9.28307056427002
      ],
      "min": [
        -10.981136322021484,
        -20.992462158203125,
        -9.28307056427002
      ],
      "type": "VEC3"
    },
    {
      "bufferView": 2,
      "byteOffset": 45528,
      "componentType": 5126,
      "count": 3794,
      "max": [
        0.9999791979789734,
        0.9999369382858276,
        0.9999996423721313
      ],
      "min": [
        -0.9999778270721436,
        -0.9999476671218872,
        -0.999999463558197
      ],
      "type": "VEC3"
    },
    {
      "bufferView": 3,
      "componentType": 5126,
      "count": 3794,
      "max": [
        1.0,
        0.9835268259048462,
        1.0,
        1.0
      ],
      "min": [
        -1.0,
        -0.9999934434890747,
        -0.9999992251396179,
        -1.0
      ],
      "type": "VEC4"
    },
    {
      "bufferView": 1,
      "componentType": 5126,
      "count": 3794,
      "max": [
        0.9927618503570557,
        0.9927669167518616
      ],
      "min": [
        0.007238131947815418,
        0.007233142852783203
      ],
      "type": "VEC2"
    },
    {
      "bufferView": 0,
      "componentType": 5125,
      "count": 9132,
      "type": "SCALAR"
    }
  ],
  "asset": {
    "extras": {
      "author": "propmaker1 (https://sketchfab.com/menX1151)",
      "license": "CC-BY-4.0 (http://creativecommons.org/licenses/by/4.0/)",
      "source": "https://sketchfab.com/3d-models/aircraft-tractor-lowpoly-model-2e9a078c365243c888f4c70f85be7b85",
      "title": "Aircraft tractor lowpoly model"
    },
    "generator": "Sketchfab-12.68.0",
    "version": "2.0"
  },
  "bufferViews": [
    {
      "buffer": 0,
      "byteLength": 36528,
      "name": "floatBufferViews",
      "target": 34963
    },
    {
      "buffer": 0,
      "byteLength": 30352,
      "byteOffset": 36528,
      "byteStride": 8,
      "name": "floatBufferViews",
      "target": 34962
    },
    {
      "buffer": 0,
      "byteLength": 91056,
      "byteOffset": 66880,
      "byteStride": 12,
      "name": "floatBufferViews",
      "target": 34962
    },
    {
      "buffer": 0,
      "byteLength": 60704,
      "byteOffset": 157936,
      "byteStride": 16,
      "name": "floatBufferViews",
      "target": 34962
    }
  ],
  "buffers": [
    {
      "byteLength": 218640,
      "uri": "scene.bin"
    }
  ],
  "images": [
    {
      "uri": "textures/Aircaft_tractor_baseColor.png"
    },
    {
      "uri": "textures/Aircaft_tractor_metallicRoughness.png"
    },
    {
      "uri": "textures/Aircaft_tractor_normal.png"
    }
  ],
  "materials": [
    {
      "doubleSided": true,
      "name": "Aircaft_tractor",
      "normalTexture": {
        "index": 2
      },
      "occlusionTexture": {
        "index": 1
      },
      "pbrMetallicRoughness": {
        "baseColorTexture": {
          "index": 0
        },
        "metallicFactor": 0.0,
        "metallicRoughnessTexture": {
          "index": 1
        },
        "roughnessFactor": 0.6
      }
    }
  ],
  "meshes": [
    {
      "name": "Object_0",
      "primitives": [
        {
          "attributes": {
            "NORMAL": 1,
            "POSITION": 0,
            "TANGENT": 2,
            "TEXCOORD_0": 3
          },
          "indices": 4,
          "material": 0,
          "mode": 4
        }
      ]
    }
  ],
  "nodes": [
    {
      "children": [
        1
      ],
      "matrix": [
        1.0,
        0.0,
        0.0,
        0.0,
        0.0,
        2.220446049250313e-16,
        -1.0,
        0.0,
        0.0,
        1.0,
        2.220446049250313e-16,
        0.0,
        0.0,
        0.0,
        0.0,
        1.0
      ],
      "name": "Sketchfab_model"
    },
    {
      "children": [
        2
      ],
      "name": "Model.obj.cleaner.materialmerger.gles"
    },
    {
      "mesh": 0,
      "name": "Object_2"
    }
  ],
  "samplers": [
    {
      "magFilter": 9729,
      "minFilter": 9987,
      "wrapS": 10497,
      "wrapT": 10497
    }
  ],
  "scene": 0,
  "scenes": [
    {
      "name": "Sketchfab_Scene",
      "nodes": [
        0
      ]
    }
  ],
  "textures": [
    {
      "sampler": 0,
      "source": 0
    },
    {
      "sampler": 0,
      "source": 1
    },
    {
      "sampler": 0,
      "source": 2
    }
  ]
}
